<svg width="40" height="40" viewBox="0 0 40 40" fill="none" xmlns="http://www.w3.org/2000/svg">
<rect width="40" height="40" rx="20" fill="#FFBE00"/>
<g clip-path="url(#clip0_705_16172)">
<path d="M30 18.3334C30 18.2726 29.9933 18.2119 29.98 18.1526L28.8967 13.2626C28.6954 12.3344 28.1811 11.5037 27.4401 10.9097C26.6991 10.3157 25.7764 9.99455 24.8267 10.0001H15.1733C14.2242 9.99532 13.3023 10.3168 12.5619 10.9108C11.8216 11.5047 11.3078 12.335 11.1067 13.2626L10.02 18.1526C10.0067 18.2119 9.99997 18.2726 10 18.3334V19.1667C9.99933 19.9781 10.2958 20.7616 10.8333 21.3692V25.8334C10.8347 26.9381 11.2741 27.9971 12.0552 28.7782C12.8363 29.5593 13.8953 29.9987 15 30.0001H25C26.1047 29.9987 27.1637 29.5593 27.9448 28.7782C28.7259 27.9971 29.1653 26.9381 29.1667 25.8334V21.3692C29.7042 20.7616 30.0007 19.9781 30 19.1667V18.3334ZM11.6667 18.4242L12.7333 13.6242C12.8542 13.0678 13.1625 12.5697 13.6067 12.2134C14.0508 11.8571 14.6039 11.6641 15.1733 11.6667H15.8333V14.1667C15.8333 14.3878 15.9211 14.5997 16.0774 14.756C16.2337 14.9123 16.4457 15.0001 16.6667 15.0001C16.8877 15.0001 17.0996 14.9123 17.2559 14.756C17.4122 14.5997 17.5 14.3878 17.5 14.1667V11.6667H22.5V14.1667C22.5 14.3878 22.5878 14.5997 22.7441 14.756C22.9004 14.9123 23.1123 15.0001 23.3333 15.0001C23.5543 15.0001 23.7663 14.9123 23.9226 14.756C24.0789 14.5997 24.1667 14.3878 24.1667 14.1667V11.6667H24.8267C25.3961 11.6641 25.9492 11.8571 26.3933 12.2134C26.8375 12.5697 27.1458 13.0678 27.2667 13.6242L28.3333 18.4242V19.1667C28.3333 19.6088 28.1577 20.0327 27.8452 20.3452C27.5326 20.6578 27.1087 20.8334 26.6667 20.8334H25.8333C25.3913 20.8334 24.9674 20.6578 24.6548 20.3452C24.3423 20.0327 24.1667 19.6088 24.1667 19.1667C24.1667 18.9457 24.0789 18.7338 23.9226 18.5775C23.7663 18.4212 23.5543 18.3334 23.3333 18.3334C23.1123 18.3334 22.9004 18.4212 22.7441 18.5775C22.5878 18.7338 22.5 18.9457 22.5 19.1667C22.5 19.6088 22.3244 20.0327 22.0118 20.3452C21.6993 20.6578 21.2754 20.8334 20.8333 20.8334H19.1667C18.7246 20.8334 18.3007 20.6578 17.9882 20.3452C17.6756 20.0327 17.5 19.6088 17.5 19.1667C17.5 18.9457 17.4122 18.7338 17.2559 18.5775C17.0996 18.4212 16.8877 18.3334 16.6667 18.3334C16.4457 18.3334 16.2337 18.4212 16.0774 18.5775C15.9211 18.7338 15.8333 18.9457 15.8333 19.1667C15.8333 19.6088 15.6577 20.0327 15.3452 20.3452C15.0326 20.6578 14.6087 20.8334 14.1667 20.8334H13.3333C12.8913 20.8334 12.4674 20.6578 12.1548 20.3452C11.8423 20.0327 11.6667 19.6088 11.6667 19.1667V18.4242ZM25 28.3334H15C14.337 28.3334 13.7011 28.07 13.2322 27.6012C12.7634 27.1323 12.5 26.4964 12.5 25.8334V22.3942C12.7722 22.4647 13.0522 22.5003 13.3333 22.5001H14.1667C14.6398 22.5003 15.1076 22.3996 15.5388 22.2046C15.9699 22.0095 16.3544 21.7248 16.6667 21.3692C16.9789 21.7248 17.3635 22.0095 17.7946 22.2046C18.2257 22.3996 18.6935 22.5003 19.1667 22.5001H20.8333C21.3065 22.5003 21.7743 22.3996 22.2054 22.2046C22.6365 22.0095 23.0211 21.7248 23.3333 21.3692C23.6456 21.7248 24.0301 22.0095 24.4612 22.2046C24.8924 22.3996 25.3602 22.5003 25.8333 22.5001H26.6667C26.9478 22.5003 27.2278 22.4647 27.5 22.3942V25.8334C27.5 26.4964 27.2366 27.1323 26.7678 27.6012C26.2989 28.07 25.663 28.3334 25 28.3334Z" fill="white"/>
</g>
<defs>
<clipPath id="clip0_705_16172">
<rect width="20" height="20" fill="white" transform="translate(10 10)"/>
</clipPath>
</defs>
</svg>
